<?xml version="1.0" encoding="UTF-8"?>
<svg xmlns="http://www.w3.org/2000/svg" xmlns:xlink="http://www.w3.org/1999/xlink" width="810pt" height="809.999993pt" viewBox="0 0 810 809.999993" version="1.2">
<defs>
<clipPath id="clip1">
  <path d="M 247 223.53125 L 563 223.53125 L 563 430 L 247 430 Z M 247 223.53125 "/>
</clipPath>
<clipPath id="clip2">
  <path d="M 247 379 L 563 379 L 563 586.53125 L 247 586.53125 Z M 247 379 "/>
</clipPath>
</defs>
<g id="surface1">
<g clip-path="url(#clip1)" clip-rule="nonzero">
<path style=" stroke:none;fill-rule:nonzero;fill:rgb(85.099792%,85.099792%,85.099792%);fill-opacity:1;" d="M 247.0625 272.800781 C 247.0625 270.535156 247.625 268.269531 249.324219 266.570312 L 290.046875 225.796875 C 291.746094 224.097656 294.007812 223.53125 296.269531 223.53125 C 298.53125 223.53125 300.796875 224.664062 302.492188 225.796875 L 404.304688 328.300781 L 506.683594 226.363281 C 508.382812 224.664062 510.644531 224.097656 512.90625 224.097656 C 515.167969 224.097656 517.429688 225.230469 519.128906 226.363281 L 559.855469 267.136719 C 563.246094 270.535156 563.246094 275.632812 559.855469 279.03125 L 411.660156 427.402344 C 409.960938 429.101562 407.132812 430.234375 404.871094 429.667969 C 402.609375 429.667969 399.78125 429.101562 398.082031 427.402344 L 249.324219 279.03125 C 247.625 277.332031 247.0625 275.066406 247.0625 272.800781 Z M 296.269531 243.921875 L 267.421875 272.800781 L 404.304688 409.847656 L 541.1875 272.800781 L 512.339844 243.921875 L 409.960938 346.421875 C 406.566406 349.820312 401.476562 349.820312 398.082031 346.421875 Z M 296.269531 243.921875 "/>
</g>
<g clip-path="url(#clip2)" clip-rule="nonzero">
<path style=" stroke:none;fill-rule:nonzero;fill:rgb(85.099792%,85.099792%,85.099792%);fill-opacity:1;" d="M 247.0625 429.101562 C 247.0625 426.835938 247.625 424.570312 249.324219 422.871094 L 290.046875 382.097656 C 291.746094 380.398438 294.007812 379.832031 296.269531 379.832031 C 298.53125 379.832031 300.796875 380.964844 302.492188 382.097656 L 404.304688 484.597656 L 506.683594 382.664062 C 508.382812 380.964844 510.644531 380.398438 512.90625 380.398438 C 515.167969 380.398438 517.429688 381.53125 519.128906 382.664062 L 559.855469 423.4375 C 563.246094 426.835938 563.246094 431.933594 559.855469 435.332031 L 411.660156 583.703125 C 409.960938 585.402344 407.132812 586.53125 404.871094 585.964844 C 402.609375 585.964844 399.78125 585.402344 398.082031 583.703125 L 249.324219 435.332031 C 247.625 433.632812 247.0625 431.367188 247.0625 429.101562 Z M 296.269531 400.785156 L 267.421875 429.667969 L 404.304688 566.144531 L 541.1875 429.101562 L 512.339844 400.21875 L 409.960938 502.71875 C 406.566406 506.117188 401.476562 506.117188 398.082031 502.71875 Z M 296.269531 400.785156 "/>
</g>
</g>
</svg>
